<svg width="38" height="40" viewBox="0 0 38 40" fill="none" xmlns="http://www.w3.org/2000/svg">
<path fill-rule="evenodd" clip-rule="evenodd" d="M36.9075 0.187206C37.0886 0.299192 37.238 0.45557 37.3417 0.641514C37.4454 0.827458 37.4999 1.0368 37.5 1.24971V38.7497C37.5 39.0812 37.3683 39.3992 37.1339 39.6336C36.8995 39.868 36.5815 39.9997 36.25 39.9997H28.75C28.4185 39.9997 28.1005 39.868 27.8661 39.6336C27.6317 39.3992 27.5 39.0812 27.5 38.7497V34.9997H25V38.7497C25 39.0812 24.8683 39.3992 24.6339 39.6336C24.3995 39.868 24.0815 39.9997 23.75 39.9997H1.25C0.918479 39.9997 0.600537 39.868 0.366117 39.6336C0.131696 39.3992 0 39.0812 0 38.7497V24.9997C0.000199117 24.7375 0.0828702 24.4819 0.236312 24.2693C0.389754 24.0566 0.606195 23.8976 0.855 23.8147L15 19.0997V11.2497C15 11.0178 15.0646 10.7904 15.1864 10.593C15.3083 10.3957 15.4826 10.2361 15.69 10.1322L35.69 0.132206C35.8808 0.0367207 36.0928 -0.00835351 36.3059 0.0012737C36.519 0.0109009 36.7261 0.0749092 36.9075 0.187206ZM15 21.7347L2.5 25.8997V37.4997H15V21.7347ZM17.5 37.4997H22.5V33.7497C22.5 33.4182 22.6317 33.1002 22.8661 32.8658C23.1005 32.6314 23.4185 32.4997 23.75 32.4997H28.75C29.0815 32.4997 29.3995 32.6314 29.6339 32.8658C29.8683 33.1002 30 33.4182 30 33.7497V37.4997H35V3.27221L17.5 12.0222V37.4997Z" fill="white"/>
<path d="M5 27.5H7.5V30H5V27.5ZM10 27.5H12.5V30H10V27.5ZM5 32.5H7.5V35H5V32.5ZM10 32.5H12.5V35H10V32.5ZM20 22.5H22.5V25H20V22.5ZM25 22.5H27.5V25H25V22.5ZM20 27.5H22.5V30H20V27.5ZM25 27.5H27.5V30H25V27.5ZM30 22.5H32.5V25H30V22.5ZM30 27.5H32.5V30H30V27.5ZM20 17.5H22.5V20H20V17.5ZM25 17.5H27.5V20H25V17.5ZM30 17.5H32.5V20H30V17.5ZM20 12.5H22.5V15H20V12.5ZM25 12.5H27.5V15H25V12.5ZM30 12.5H32.5V15H30V12.5ZM30 7.5H32.5V10H30V7.5Z" fill="white"/>
</svg>
