<svg width="40" height="40" viewBox="0 0 40 40" fill="none" xmlns="http://www.w3.org/2000/svg">
<path d="M36.25 6.25H3.75C3.05859 6.25 2.5 6.80859 2.5 7.5V32.5C2.5 33.1914 3.05859 33.75 3.75 33.75H36.25C36.9414 33.75 37.5 33.1914 37.5 32.5V7.5C37.5 6.80859 36.9414 6.25 36.25 6.25ZM34.6875 10.5781V30.9375H5.3125V10.5781L4.23438 9.73828L5.76953 7.76563L7.44141 9.06641H32.5625L34.2344 7.76563L35.7695 9.73828L34.6875 10.5781ZM32.5625 9.0625L20 18.8281L7.4375 9.0625L5.76563 7.76172L4.23047 9.73438L5.30859 10.5742L18.6523 20.9492C19.0361 21.2473 19.5082 21.4092 19.9941 21.4092C20.4801 21.4092 20.9522 21.2473 21.3359 20.9492L34.6875 10.5781L35.7656 9.73828L34.2305 7.76563L32.5625 9.0625Z" fill="white"/>
</svg>
