<svg width="40" height="40" viewBox="0 0 40 40" fill="none" xmlns="http://www.w3.org/2000/svg">
<path d="M27.6164 36.6669C28.059 36.6695 28.4978 36.5838 28.907 36.415C29.3162 36.2462 29.6877 35.9975 29.9997 35.6836L34.5164 31.1669C34.8268 30.8546 35.0011 30.4322 35.0011 29.9919C35.0011 29.5516 34.8268 29.1292 34.5164 28.8169L27.8497 22.1502C27.5375 21.8398 27.115 21.6656 26.6747 21.6656C26.2344 21.6656 25.812 21.8398 25.4997 22.1502L22.8331 24.8002C20.9868 24.308 19.2769 23.4017 17.8331 22.1502C16.5849 20.7041 15.6791 18.995 15.1831 17.1502L17.8331 14.4836C18.1435 14.1713 18.3177 13.7489 18.3177 13.3086C18.3177 12.8683 18.1435 12.4458 17.8331 12.1336L11.1664 5.4669C10.8541 5.15648 10.4317 4.98225 9.9914 4.98225C9.55109 4.98225 9.12867 5.15648 8.8164 5.4669L4.3164 10.0002C4.00245 10.3123 3.75381 10.6838 3.58497 11.093C3.41614 11.5022 3.33051 11.9409 3.33306 12.3836C3.48427 18.7874 6.04319 24.899 10.4997 29.5002C15.1009 33.9568 21.2126 36.5157 27.6164 36.6669ZM9.99973 9.0169L14.3164 13.3336L12.1664 15.4836C11.9628 15.6743 11.8103 15.9131 11.7229 16.1781C11.6356 16.4431 11.6161 16.7258 11.6664 17.0002C12.2893 19.7842 13.6082 22.3646 15.4997 24.5002C17.6337 26.3941 20.2148 27.7134 22.9997 28.3336C23.27 28.3901 23.5501 28.3785 23.8149 28.3C24.0796 28.2214 24.3207 28.0783 24.5164 27.8836L26.6664 25.6836L30.9831 30.0002L27.6497 33.3336C22.1226 33.1913 16.8489 30.9855 12.8664 27.1502C9.02125 23.1661 6.80908 17.8854 6.6664 12.3502L9.99973 9.0169ZM33.3331 18.3336H36.6664C36.7096 16.3519 36.3512 14.382 35.6126 12.5426C34.8741 10.7032 33.7708 9.03231 32.3692 7.63073C30.9677 6.22914 29.2968 5.12584 27.4574 4.38732C25.618 3.6488 23.6481 3.29035 21.6664 3.33357V6.6669C23.2129 6.61341 24.7539 6.87859 26.1936 7.44596C27.6332 8.01333 28.9408 8.87077 30.035 9.96497C31.1292 11.0592 31.9866 12.3667 32.554 13.8064C33.1214 15.2461 33.3866 16.7871 33.3331 18.3336Z" fill="white"/>
<path d="M21.667 13.3333C25.167 13.3333 26.667 14.8333 26.667 18.3333H30.0003C30.0003 12.9667 27.0337 10 21.667 10V13.3333Z" fill="white"/>
</svg>
